<svg version="1.1" id="Layer_1" xmlns="http://www.w3.org/2000/svg" xmlns:xlink="http://www.w3.org/1999/xlink" x="0px" y="0px"
	 width="100%" viewBox="0 0 529 137" enable-background="new 0 0 529 137" xml:space="preserve">
<path fill="#FEFEFF" opacity="1.000000" stroke="none" 
	d="
M509.000244,138.000000 
	C339.333527,138.000000 170.166916,138.000000 1.000228,138.000000 
	C1.000152,92.333450 1.000152,46.666901 1.000076,1.000264 
	C177.333145,1.000176 353.666290,1.000176 529.999634,1.000088 
	C529.999756,46.666470 529.999756,92.332939 529.999878,137.999695 
	C523.166809,138.000000 516.333557,138.000000 509.000244,138.000000 
M60.398354,115.220367 
	C62.183388,115.577927 63.956814,116.013412 65.755211,116.281242 
	C89.466667,119.812584 109.571480,103.922409 112.407455,79.431358 
	C114.903793,57.873444 97.675896,37.740963 75.133865,35.873520 
	C54.605362,34.172882 35.936718,48.049427 32.002312,67.933525 
	C27.898722,88.672630 39.574501,108.588051 60.398354,115.220367 
M129.434280,72.500092 
	C129.434280,82.905144 129.434280,93.310196 129.434280,103.626633 
	C133.612000,103.626633 137.005814,103.626633 140.855652,103.626633 
	C140.855652,93.670860 140.855652,84.092422 140.855652,74.325394 
	C152.025833,74.325394 162.720154,74.325394 174.060669,74.325394 
	C174.060669,84.360352 174.060669,94.058815 174.060669,103.682808 
	C177.962036,103.682808 181.210220,103.682808 184.636536,103.682808 
	C184.636536,85.960770 184.636536,68.571259 184.636536,50.870605 
	C181.005524,50.870605 177.646439,50.870605 173.846420,50.870605 
	C173.846420,54.433453 173.718658,57.577087 173.884399,60.705170 
	C174.033325,63.515850 172.958054,64.550804 170.134705,64.482285 
	C164.148407,64.336998 158.154602,64.520355 152.166824,64.409515 
	C148.566086,64.342857 144.185074,65.106125 141.651016,63.344299 
	C139.977005,62.180431 140.754044,57.192139 140.801086,53.921417 
	C140.873169,48.911987 137.211044,50.644958 134.781921,50.504330 
	C132.311630,50.361305 129.210938,49.512798 129.381958,54.031879 
	C129.602020,59.846996 129.435074,65.676765 129.434280,72.500092 
M378.582733,69.048912 
	C366.906952,81.261551 370.793304,97.995872 386.977203,102.758492 
	C392.979034,104.524727 399.709869,104.265244 406.090149,104.122490 
	C409.839203,104.038620 413.552765,102.367462 417.331512,101.397614 
	C414.744720,93.611374 414.793488,94.163330 407.860565,94.775833 
	C402.059845,95.288300 396.059235,94.729973 390.286713,93.789314 
	C387.945526,93.407799 385.974274,90.756233 383.834656,89.137611 
	C384.119781,88.616440 384.404907,88.095276 384.690033,87.574112 
	C396.922333,87.574112 409.154633,87.574112 421.310364,87.574112 
	C422.389557,78.336372 418.514954,70.288658 410.639740,66.346878 
	C399.826538,60.934570 389.180634,61.406170 378.582733,69.048912 
M291.352966,103.988800 
	C294.285309,103.103439 297.217682,102.218071 300.129761,101.338829 
	C297.762390,93.574493 297.813110,94.131493 290.886536,94.762276 
	C285.076874,95.291359 279.062164,94.744072 273.277802,93.809578 
	C270.896759,93.424911 268.881165,90.778229 266.699371,89.160431 
	C266.968933,88.721069 267.238495,88.281715 267.508057,87.842354 
	C276.829712,87.842354 286.151337,87.842361 295.472992,87.842354 
	C305.544220,87.842346 307.156494,85.279922 302.575531,75.914001 
	C301.361481,73.431801 299.555450,71.071571 297.529480,69.182793 
	C288.301208,60.579445 270.424347,60.747543 261.196777,69.335182 
	C251.061951,78.767143 252.990463,94.471809 265.246033,100.933456 
	C273.198792,105.126472 281.727478,105.848289 291.352966,103.988800 
M475.515259,93.584335 
	C476.766266,88.240601 476.157654,83.041039 470.815338,80.703110 
	C466.900970,78.990082 462.196198,78.821487 457.806610,78.537552 
	C454.185608,78.303322 450.499481,79.167702 446.864227,79.016342 
	C445.405121,78.955589 444.004852,77.481110 442.577820,76.650101 
	C443.684967,75.183235 444.531891,72.860069 445.953461,72.428123 
	C448.893188,71.534920 452.181793,71.180130 455.248230,71.461456 
	C459.497681,71.851303 463.674744,73.030556 468.291046,73.953423 
	C469.254669,71.531807 470.202271,69.150436 471.527679,65.819580 
	C465.321320,64.799530 459.793915,63.118065 454.294403,63.204906 
	C448.810944,63.291492 443.059998,64.409454 437.969513,66.438202 
	C432.706604,68.535667 430.509705,74.257393 431.486206,79.285965 
	C432.559784,84.814468 436.277130,87.700920 441.572266,88.076775 
	C446.661987,88.438065 451.809143,87.902191 456.927490,87.983810 
	C459.850616,88.030426 464.349487,86.360863 464.752655,90.812988 
	C465.171112,95.433891 460.536469,95.494431 457.143097,95.998802 
	C455.670380,96.217690 454.113983,96.340981 452.656616,96.114616 
	C446.351349,95.135284 440.068634,94.010643 433.289459,92.855675 
	C432.348511,94.476692 431.042572,96.726440 429.536713,99.320648 
	C439.975464,104.157776 450.180847,106.242996 461.034637,104.015854 
	C467.097748,102.771736 472.565460,100.592155 475.515259,93.584335 
M361.893036,101.193436 
	C361.859741,94.698311 362.093292,88.188362 361.733276,81.711395 
	C361.127655,70.816040 353.051697,63.014450 342.144379,63.105644 
	C336.935059,63.149193 331.736176,64.440514 326.532562,65.166664 
	C326.619415,64.966492 326.706268,64.766319 326.793152,64.566139 
	C323.067566,64.111656 319.342010,63.657173 315.376038,63.173363 
	C315.376038,77.363548 315.376038,90.444656 315.376038,103.615097 
	C318.886047,103.615097 322.081726,103.615097 325.623993,103.615097 
	C325.623993,95.578712 325.499451,87.934845 325.717865,80.300789 
	C325.767944,78.550812 326.498077,76.111946 327.773071,75.229309 
	C332.991058,71.617104 338.881958,70.569572 344.785461,73.385559 
	C350.115051,75.927795 351.476196,80.820496 351.372711,86.369400 
	C351.264984,92.145012 351.348694,97.924202 351.348694,105.019775 
	C355.487793,103.879654 358.675537,103.001587 361.893036,101.193436 
M501.223175,84.517731 
	C501.223175,80.119804 501.223175,75.721878 501.223175,70.947205 
	C505.012146,70.947205 507.788055,70.947205 510.676147,70.947205 
	C510.676147,68.328682 510.676147,66.139748 510.676147,63.756729 
	C507.394989,63.522408 504.503998,63.315952 501.044373,63.068882 
	C501.044373,58.844776 501.044373,55.110806 501.044373,51.417282 
	C497.357178,51.417282 494.298309,51.417282 490.686951,51.417282 
	C490.686951,55.540936 490.686951,59.281792 490.686951,62.923176 
	C480.438873,64.379822 480.438873,64.379822 481.908478,70.875824 
	C484.753204,71.036377 487.658844,71.200371 491.038177,71.391098 
	C491.038177,82.401321 491.038177,92.981918 491.038177,103.696793 
	C494.620483,103.696793 497.688538,103.696793 501.223450,103.696793 
	C501.223450,97.429916 501.223450,91.471245 501.223175,84.517731 
M232.057251,101.244965 
	C232.059387,95.761192 232.389984,90.251923 231.967026,84.801140 
	C231.580200,79.816101 233.856445,76.836609 237.964645,75.029533 
	C241.517624,73.466667 245.286957,72.395683 249.151535,71.040321 
	C248.832275,69.863602 248.568573,68.746605 248.226227,67.654259 
	C246.477371,62.073883 246.074051,61.875561 240.598785,64.356560 
	C237.943176,65.559883 235.361588,66.926575 233.240906,67.974884 
	C231.970352,66.193459 231.285187,64.095154 230.031326,63.668617 
	C224.107773,61.653553 221.519547,63.703590 221.509811,69.927864 
	C221.503830,73.749886 221.508713,77.571915 221.508713,81.393944 
	C221.508713,88.819473 221.508713,96.245010 221.508713,104.962624 
	C225.619644,103.877388 228.821075,103.032257 232.057251,101.244965 
M208.848175,70.620255 
	C208.848175,68.363556 208.848175,66.106857 208.848175,63.635883 
	C206.644409,63.528072 205.154831,63.587654 203.710541,63.360001 
	C199.166931,62.643826 197.968002,64.665268 198.220078,68.972565 
	C198.569672,74.945908 198.307938,80.955032 198.307922,86.948837 
	C198.307922,92.544144 198.307907,98.139458 198.307907,103.732689 
	C202.158737,103.732689 205.249176,103.732689 208.847977,103.732689 
	C208.847977,92.818092 208.847977,82.202423 208.848175,70.620255 
M197.133972,54.178417 
	C199.845947,58.123413 204.131699,59.393581 207.636307,57.166496 
	C210.184860,55.546947 211.264893,53.287048 209.676773,50.418625 
	C207.936798,47.275902 202.735062,46.101868 199.638794,48.504688 
	C198.302902,49.541393 197.863968,51.733906 197.133972,54.178417 
z"/>
<path fill="#3A84C5" opacity="1.000000" stroke="none" 
	d="
M60.004715,115.123138 
	C39.574501,108.588051 27.898722,88.672630 32.002312,67.933525 
	C35.936718,48.049427 54.605362,34.172882 75.133865,35.873520 
	C97.675896,37.740963 114.903793,57.873444 112.407455,79.431358 
	C109.571480,103.922409 89.466667,119.812584 65.755211,116.281242 
	C63.956814,116.013412 62.183388,115.577927 60.004715,115.123138 
M82.890991,82.497757 
	C82.890991,85.578125 82.890991,88.658501 82.890991,91.652084 
	C85.824905,91.652084 87.906731,91.652084 89.948486,91.652084 
	C89.948486,79.916969 89.948486,68.532784 89.948486,57.140366 
	C87.473946,57.140366 85.409607,57.140366 83.099091,57.140366 
	C82.942413,60.231617 82.803535,62.971676 82.664818,65.708603 
	C75.364883,65.708603 68.612091,65.708603 61.602524,65.708603 
	C61.407310,62.705006 61.229393,59.967609 61.042057,57.085213 
	C58.576050,57.085213 56.511597,57.085213 54.199982,57.085213 
	C54.199982,68.784592 54.199982,80.160591 54.199982,91.735199 
	C56.606575,91.735199 58.686310,91.735199 61.388977,91.735199 
	C61.388977,85.262047 61.388977,79.035065 61.388977,72.657005 
	C68.878922,72.657005 75.737862,72.657005 82.890862,72.657005 
	C82.890862,75.887665 82.890862,78.707588 82.890991,82.497757 
z"/>
<path fill="#3C86C6" opacity="1.000000" stroke="none" 
	d="
M129.434555,72.000153 
	C129.435074,65.676765 129.602020,59.846996 129.381958,54.031879 
	C129.210938,49.512798 132.311630,50.361305 134.781921,50.504330 
	C137.211044,50.644958 140.873169,48.911987 140.801086,53.921417 
	C140.754044,57.192139 139.977005,62.180431 141.651016,63.344299 
	C144.185074,65.106125 148.566086,64.342857 152.166824,64.409515 
	C158.154602,64.520355 164.148407,64.336998 170.134705,64.482285 
	C172.958054,64.550804 174.033325,63.515850 173.884399,60.705170 
	C173.718658,57.577087 173.846420,54.433453 173.846420,50.870605 
	C177.646439,50.870605 181.005524,50.870605 184.636536,50.870605 
	C184.636536,68.571259 184.636536,85.960770 184.636536,103.682808 
	C181.210220,103.682808 177.962036,103.682808 174.060669,103.682808 
	C174.060669,94.058815 174.060669,84.360352 174.060669,74.325394 
	C162.720154,74.325394 152.025833,74.325394 140.855652,74.325394 
	C140.855652,84.092422 140.855652,93.670860 140.855652,103.626633 
	C137.005814,103.626633 133.612000,103.626633 129.434280,103.626633 
	C129.434280,93.310196 129.434280,82.905144 129.434555,72.000153 
z"/>
<path fill="#3C85C6" opacity="1.000000" stroke="none" 
	d="
M378.857605,68.810913 
	C389.180634,61.406170 399.826538,60.934570 410.639740,66.346878 
	C418.514954,70.288658 422.389557,78.336372 421.310364,87.574112 
	C409.154633,87.574112 396.922333,87.574112 384.690033,87.574112 
	C384.404907,88.095276 384.119781,88.616440 383.834656,89.137611 
	C385.974274,90.756233 387.945526,93.407799 390.286713,93.789314 
	C396.059235,94.729973 402.059845,95.288300 407.860565,94.775833 
	C414.793488,94.163330 414.744720,93.611374 417.331512,101.397614 
	C413.552765,102.367462 409.839203,104.038620 406.090149,104.122490 
	C399.709869,104.265244 392.979034,104.524727 386.977203,102.758492 
	C370.793304,97.995872 366.906952,81.261551 378.857605,68.810913 
M387.909912,79.927551 
	C395.260773,79.927551 402.611633,79.927551 410.282593,79.927551 
	C407.630768,73.774124 403.845978,71.794868 396.245941,71.960281 
	C389.958832,72.097122 386.109436,74.468071 384.137756,79.702675 
	C385.169708,79.782654 386.096283,79.854462 387.909912,79.927551 
z"/>
<path fill="#3C85C6" opacity="1.000000" stroke="none" 
	d="
M290.923889,104.024063 
	C281.727478,105.848289 273.198792,105.126472 265.246033,100.933456 
	C252.990463,94.471809 251.061951,78.767143 261.196777,69.335182 
	C270.424347,60.747543 288.301208,60.579445 297.529480,69.182793 
	C299.555450,71.071571 301.361481,73.431801 302.575531,75.914001 
	C307.156494,85.279922 305.544220,87.842346 295.472992,87.842354 
	C286.151337,87.842361 276.829712,87.842354 267.508057,87.842354 
	C267.238495,88.281715 266.968933,88.721069 266.699371,89.160431 
	C268.881165,90.778229 270.896759,93.424911 273.277802,93.809578 
	C279.062164,94.744072 285.076874,95.291359 290.886536,94.762276 
	C297.813110,94.131493 297.762390,93.574493 300.129761,101.338829 
	C297.217682,102.218071 294.285309,103.103439 290.923889,104.024063 
M292.027283,76.785210 
	C284.016541,69.084900 269.794952,70.622940 267.131866,79.914482 
	C275.188263,79.914482 283.123657,79.959030 291.055328,79.807922 
	C291.550720,79.798485 292.016937,78.255936 292.027283,76.785210 
z"/>
<path fill="#3D86C6" opacity="1.000000" stroke="none" 
	d="
M475.368317,93.956329 
	C472.565460,100.592155 467.097748,102.771736 461.034637,104.015854 
	C450.180847,106.242996 439.975464,104.157776 429.536713,99.320648 
	C431.042572,96.726440 432.348511,94.476692 433.289459,92.855675 
	C440.068634,94.010643 446.351349,95.135284 452.656616,96.114616 
	C454.113983,96.340981 455.670380,96.217690 457.143097,95.998802 
	C460.536469,95.494431 465.171112,95.433891 464.752655,90.812988 
	C464.349487,86.360863 459.850616,88.030426 456.927490,87.983810 
	C451.809143,87.902191 446.661987,88.438065 441.572266,88.076775 
	C436.277130,87.700920 432.559784,84.814468 431.486206,79.285965 
	C430.509705,74.257393 432.706604,68.535667 437.969513,66.438202 
	C443.059998,64.409454 448.810944,63.291492 454.294403,63.204906 
	C459.793915,63.118065 465.321320,64.799530 471.527679,65.819580 
	C470.202271,69.150436 469.254669,71.531807 468.291046,73.953423 
	C463.674744,73.030556 459.497681,71.851303 455.248230,71.461456 
	C452.181793,71.180130 448.893188,71.534920 445.953461,72.428123 
	C444.531891,72.860069 443.684967,75.183235 442.577820,76.650101 
	C444.004852,77.481110 445.405121,78.955589 446.864227,79.016342 
	C450.499481,79.167702 454.185608,78.303322 457.806610,78.537552 
	C462.196198,78.821487 466.900970,78.990082 470.815338,80.703110 
	C476.157654,83.041039 476.766266,88.240601 475.368317,93.956329 
z"/>
<path fill="#3D86C6" opacity="1.000000" stroke="none" 
	d="
M361.878174,101.658478 
	C358.675537,103.001587 355.487793,103.879654 351.348694,105.019775 
	C351.348694,97.924202 351.264984,92.145012 351.372711,86.369400 
	C351.476196,80.820496 350.115051,75.927795 344.785461,73.385559 
	C338.881958,70.569572 332.991058,71.617104 327.773071,75.229309 
	C326.498077,76.111946 325.767944,78.550812 325.717865,80.300789 
	C325.499451,87.934845 325.623993,95.578712 325.623993,103.615097 
	C322.081726,103.615097 318.886047,103.615097 315.376038,103.615097 
	C315.376038,90.444656 315.376038,77.363548 315.376038,63.173363 
	C319.342010,63.657173 323.067566,64.111656 326.793152,64.566139 
	C326.706268,64.766319 326.619415,64.966492 326.532562,65.166664 
	C331.736176,64.440514 336.935059,63.149193 342.144379,63.105644 
	C353.051697,63.014450 361.127655,70.816040 361.733276,81.711395 
	C362.093292,88.188362 361.859741,94.698311 361.878174,101.658478 
z"/>
<path fill="#3B85C6" opacity="1.000000" stroke="none" 
	d="
M501.223328,85.015152 
	C501.223450,91.471245 501.223450,97.429916 501.223450,103.696793 
	C497.688538,103.696793 494.620483,103.696793 491.038177,103.696793 
	C491.038177,92.981918 491.038177,82.401321 491.038177,71.391098 
	C487.658844,71.200371 484.753204,71.036377 481.908478,70.875824 
	C480.438873,64.379822 480.438873,64.379822 490.686951,62.923176 
	C490.686951,59.281792 490.686951,55.540936 490.686951,51.417282 
	C494.298309,51.417282 497.357178,51.417282 501.044373,51.417282 
	C501.044373,55.110806 501.044373,58.844776 501.044373,63.068882 
	C504.503998,63.315952 507.394989,63.522408 510.676147,63.756729 
	C510.676147,66.139748 510.676147,68.328682 510.676147,70.947205 
	C507.788055,70.947205 505.012146,70.947205 501.223175,70.947205 
	C501.223175,75.721878 501.223175,80.119804 501.223328,85.015152 
z"/>
<path fill="#3B85C6" opacity="1.000000" stroke="none" 
	d="
M232.039886,101.716042 
	C228.821075,103.032257 225.619644,103.877388 221.508713,104.962624 
	C221.508713,96.245010 221.508713,88.819473 221.508713,81.393944 
	C221.508713,77.571915 221.503830,73.749886 221.509811,69.927864 
	C221.519547,63.703590 224.107773,61.653553 230.031326,63.668617 
	C231.285187,64.095154 231.970352,66.193459 233.240906,67.974884 
	C235.361588,66.926575 237.943176,65.559883 240.598785,64.356560 
	C246.074051,61.875561 246.477371,62.073883 248.226227,67.654259 
	C248.568573,68.746605 248.832275,69.863602 249.151535,71.040321 
	C245.286957,72.395683 241.517624,73.466667 237.964645,75.029533 
	C233.856445,76.836609 231.580200,79.816101 231.967026,84.801140 
	C232.389984,90.251923 232.059387,95.761192 232.039886,101.716042 
z"/>
<path fill="#478CC9" opacity="1.000000" stroke="none" 
	d="
M208.848083,71.103500 
	C208.847977,82.202423 208.847977,92.818092 208.847977,103.732689 
	C205.249176,103.732689 202.158737,103.732689 198.307907,103.732689 
	C198.307907,98.139458 198.307922,92.544144 198.307922,86.948837 
	C198.307938,80.955032 198.569672,74.945908 198.220078,68.972565 
	C197.968002,64.665268 199.166931,62.643826 203.710541,63.360001 
	C205.154831,63.587654 206.644409,63.528072 208.848175,63.635883 
	C208.848175,66.106857 208.848175,68.363556 208.848083,71.103500 
z"/>
<path fill="#4189C8" opacity="1.000000" stroke="none" 
	d="
M197.075775,53.789886 
	C197.863968,51.733906 198.302902,49.541393 199.638794,48.504688 
	C202.735062,46.101868 207.936798,47.275902 209.676773,50.418625 
	C211.264893,53.287048 210.184860,55.546947 207.636307,57.166496 
	C204.131699,59.393581 199.845947,58.123413 197.075775,53.789886 
z"/>
<path fill="#F9FBFD" opacity="1.000000" stroke="none" 
	d="
M82.890930,82.012634 
	C82.890862,78.707588 82.890862,75.887665 82.890862,72.657005 
	C75.737862,72.657005 68.878922,72.657005 61.388977,72.657005 
	C61.388977,79.035065 61.388977,85.262047 61.388977,91.735199 
	C58.686310,91.735199 56.606575,91.735199 54.199982,91.735199 
	C54.199982,80.160591 54.199982,68.784592 54.199982,57.085213 
	C56.511597,57.085213 58.576050,57.085213 61.042057,57.085213 
	C61.229393,59.967609 61.407310,62.705006 61.602524,65.708603 
	C68.612091,65.708603 75.364883,65.708603 82.664818,65.708603 
	C82.803535,62.971676 82.942413,60.231617 83.099091,57.140366 
	C85.409607,57.140366 87.473946,57.140366 89.948486,57.140366 
	C89.948486,68.532784 89.948486,79.916969 89.948486,91.652084 
	C87.906731,91.652084 85.824905,91.652084 82.890991,91.652084 
	C82.890991,88.658501 82.890991,85.578125 82.890930,82.012634 
z"/>
<path fill="#F5F9FC" opacity="1.000000" stroke="none" 
	d="
M387.466370,79.926910 
	C386.096283,79.854462 385.169708,79.782654 384.137756,79.702675 
	C386.109436,74.468071 389.958832,72.097122 396.245941,71.960281 
	C403.845978,71.794868 407.630768,73.774124 410.282593,79.927551 
	C402.611633,79.927551 395.260773,79.927551 387.466370,79.926910 
z"/>
<path fill="#F4F8FC" opacity="1.000000" stroke="none" 
	d="
M292.262024,77.105927 
	C292.016937,78.255936 291.550720,79.798485 291.055328,79.807922 
	C283.123657,79.959030 275.188263,79.914482 267.131866,79.914482 
	C269.794952,70.622940 284.016541,69.084900 292.262024,77.105927 
z"/>
</svg>